<svg xmlns="http://www.w3.org/2000/svg" width="413.53" height="637.87" viewBox="0 0 413.53 637.87">
  <metadata><?xpacket begin="﻿" id="W5M0MpCehiHzreSzNTczkc9d"?>
<x:xmpmeta xmlns:x="adobe:ns:meta/" x:xmptk="Adobe XMP Core 5.6-c142 79.160924, 2017/07/13-01:06:39        ">
   <rdf:RDF xmlns:rdf="http://www.w3.org/1999/02/22-rdf-syntax-ns#">
      <rdf:Description rdf:about=""/>
   </rdf:RDF>
</x:xmpmeta>
                                                                                                    
                                                                                                    
                                                                                                    
                                                                                                    
                                                                                                    
                                                                                                    
                                                                                                    
                                                                                                    
                                                                                                    
                                                                                                    
                                                                                                    
                                                                                                    
                                                                                                    
                                                                                                    
                                                                                                    
                                                                                                    
                                                                                                    
                                                                                                    
                                                                                                    
                                                                                                    
                           
<?xpacket end="w"?></metadata>
<defs>
    <style>
      .cls-1 {
        fill: #ff7f7f;
        fill-rule: evenodd;
      }
    </style>
  </defs>
  <path id="Shape" class="cls-1" d="M1532.11,5105.34c75.32,22.51,138.16-54.62,141.73-124.22,3.58-69.7-42.49-120.69-99.98-152.21-52.82-28.95-107.32-52.45-127.19-114.6-14.73-46.06-8.91-97.56,12.26-141.03,7.96-16.34,18.62-32.1,32.15-44.04a85.33,85.33,0,0,1,29.37-17.33c25.87-8.66,54.92-3.01,80.7-11.96-0.63-9.21-9.22-14.4-18.61-17.21a70.174,70.174,0,0,0-9.47-2.09c-65.55-9.97-131.39-11.3-197.44-6.59-59.13,4.22-119.23,3.92-176.47,21.46a306.6,306.6,0,0,0-128.82,78.5c-15.87,16.25-30.19,34.78-37.17,56.4-15.89,49.23-2.42,129.79,29.61,170.34,18.68,23.65,45.66,38.09,74.88,46.83a289.53,289.53,0,0,0,47.3,9.59c45.97,5.68,103.96,1.96,152.41,16.45,20.66,6.18,39.6,15.67,55.11,30.62,24.45,23.56,33.91,58.15,44.09,90.54,14.82,47.11,42.14,92.13,91.32,109.19,1.42,0.49,2.82.94,4.22,1.36" transform="translate(-1026.47 -4471.44)"/>
</svg>
