<svg xmlns="http://www.w3.org/2000/svg" width="418" height="638" viewBox="0 0 418 638">
  <metadata><?xpacket begin="﻿" id="W5M0MpCehiHzreSzNTczkc9d"?>
<x:xmpmeta xmlns:x="adobe:ns:meta/" x:xmptk="Adobe XMP Core 5.6-c142 79.160924, 2017/07/13-01:06:39        ">
   <rdf:RDF xmlns:rdf="http://www.w3.org/1999/02/22-rdf-syntax-ns#">
      <rdf:Description rdf:about=""/>
   </rdf:RDF>
</x:xmpmeta>
                                                                                                    
                                                                                                    
                                                                                                    
                                                                                                    
                                                                                                    
                                                                                                    
                                                                                                    
                                                                                                    
                                                                                                    
                                                                                                    
                                                                                                    
                                                                                                    
                                                                                                    
                                                                                                    
                                                                                                    
                                                                                                    
                                                                                                    
                                                                                                    
                                                                                                    
                                                                                                    
                           
<?xpacket end="w"?></metadata>
<defs>
    <style>
      .cls-1 {
        fill: #ff7f7f;
        fill-rule: evenodd;
      }
    </style>
  </defs>
  <path id="Shape" class="cls-1" d="M-87.984,5142.02c-75.373,22.53-138.253-54.63-141.828-124.24-3.58-69.71,42.526-120.71,100.055-152.23,52.856-28.96,107.385-52.46,127.273-114.63,14.738-46.07,8.914-97.58-12.27-141.06-7.964-16.34-18.633-32.1-32.167-44.04a85.327,85.327,0,0,0-29.39-17.34c-25.889-8.66-54.964-3.01-80.753-11.97,0.626-9.2,9.225-14.4,18.623-17.21a69.885,69.885,0,0,1,9.473-2.08c65.6-9.98,131.481-11.31,197.574-6.59,59.164,4.22,119.306,3.91,176.583,21.46A306.739,306.739,0,0,1,374.1,4610.6c15.886,16.26,30.214,34.79,37.2,56.42,15.9,49.24,2.416,129.81-29.63,170.37-18.691,23.65-45.691,38.09-74.936,46.84a290.807,290.807,0,0,1-47.328,9.59c-46,5.68-104.028,1.96-152.51,16.45-20.681,6.18-39.626,15.68-55.154,30.63-24.466,23.56-33.925,58.16-44.119,90.55-14.829,47.12-42.168,92.16-91.38,109.21-1.414.49-2.816,0.94-4.222,1.36" transform="translate(0 -4508)"/>
</svg>
